<svg width="30" height="29" viewBox="0 0 30 29" fill="none" xmlns="http://www.w3.org/2000/svg">
<path d="M15 0.833313C13.1396 0.833313 11.2974 1.19974 9.57866 1.91169C7.85988 2.62363 6.29816 3.66714 4.98266 4.98263C2.3259 7.6394 0.833344 11.2427 0.833344 15C0.833344 21.2616 4.89918 26.5741 10.5233 28.4583C11.2317 28.5716 11.4583 28.1325 11.4583 27.75C11.4583 27.4241 11.4583 26.5316 11.4583 25.3558C7.53418 26.2058 6.69834 23.4575 6.69834 23.4575C6.04668 21.8141 5.12584 21.375 5.12584 21.375C3.83668 20.4966 5.22501 20.525 5.22501 20.525C6.64168 20.6241 7.39251 21.9841 7.39251 21.9841C8.62501 24.1375 10.7075 23.5 11.515 23.16C11.6425 22.2391 12.0108 21.6158 12.4075 21.2616C9.26251 20.9075 5.96168 19.6891 5.96168 14.2916C5.96168 12.7191 6.50001 11.4583 7.42084 10.4525C7.27918 10.0983 6.78334 8.62498 7.56251 6.71248C7.56251 6.71248 8.75251 6.32998 11.4583 8.15748C12.5775 7.84581 13.7958 7.68998 15 7.68998C16.2042 7.68998 17.4225 7.84581 18.5417 8.15748C21.2475 6.32998 22.4375 6.71248 22.4375 6.71248C23.2167 8.62498 22.7208 10.0983 22.5792 10.4525C23.5 11.4583 24.0383 12.7191 24.0383 14.2916C24.0383 19.7033 20.7233 20.8933 17.5642 21.2475C18.0742 21.6866 18.5417 22.5508 18.5417 23.8683C18.5417 25.7666 18.5417 27.2966 18.5417 27.75C18.5417 28.1325 18.7683 28.5858 19.4908 28.4583C25.115 26.56 29.1667 21.2616 29.1667 15C29.1667 13.1396 28.8003 11.2974 28.0883 9.57863C27.3764 7.85985 26.3329 6.29813 25.0174 4.98263C23.7019 3.66714 22.1401 2.62363 20.4214 1.91169C18.7026 1.19974 16.8604 0.833313 15 0.833313Z" fill="white"/>
</svg>
