<svg width="26" height="26" viewBox="0 0 26 26" fill="none" xmlns="http://www.w3.org/2000/svg">
<path d="M22.9167 0.25C23.6681 0.25 24.3888 0.548511 24.9201 1.07986C25.4515 1.61122 25.75 2.33189 25.75 3.08333V22.9167C25.75 23.6681 25.4515 24.3888 24.9201 24.9201C24.3888 25.4515 23.6681 25.75 22.9167 25.75H3.08333C2.33189 25.75 1.61122 25.4515 1.07986 24.9201C0.548511 24.3888 0.25 23.6681 0.25 22.9167V3.08333C0.25 2.33189 0.548511 1.61122 1.07986 1.07986C1.61122 0.548511 2.33189 0.25 3.08333 0.25H22.9167ZM22.2083 22.2083V14.7C22.2083 13.4751 21.7218 12.3005 20.8557 11.4343C19.9895 10.5682 18.8149 10.0817 17.59 10.0817C16.3858 10.0817 14.9833 10.8183 14.3033 11.9233V10.3508H10.3508V22.2083H14.3033V15.2242C14.3033 14.1333 15.1817 13.2408 16.2725 13.2408C16.7985 13.2408 17.303 13.4498 17.6749 13.8217C18.0469 14.1937 18.2558 14.6982 18.2558 15.2242V22.2083H22.2083ZM5.74667 8.12667C6.37788 8.12667 6.98324 7.87592 7.42958 7.42958C7.87592 6.98324 8.12667 6.37788 8.12667 5.74667C8.12667 4.42917 7.06417 3.3525 5.74667 3.3525C5.11169 3.3525 4.50273 3.60474 4.05374 4.05374C3.60474 4.50273 3.3525 5.11169 3.3525 5.74667C3.3525 7.06417 4.42917 8.12667 5.74667 8.12667ZM7.71583 22.2083V10.3508H3.79167V22.2083H7.71583Z" fill="white"/>
</svg>
